<?xml version="1.0" encoding="UTF-8"?>
<svg xmlns="http://www.w3.org/2000/svg" width="777" height="376" viewBox="0 0 777 376" font-family="ui-monospace, 'Cascadia Code', 'JetBrains Mono', Menlo, Consolas, monospace">
  <defs>
    <style>
      text { dominant-baseline: text-before-edge; }
      .ascii { opacity: 0; animation: fade 0.7s ease 0.1s forwards; }
      .ln { opacity: 0; animation: reveal 0.45s cubic-bezier(.2,.8,.2,1) forwards; }
      .cur { animation: blink 1s steps(1) infinite; }
      @keyframes fade { to { opacity: 1; } }
      @keyframes reveal { from { opacity: 0; } to { opacity: 1; } }
      @keyframes blink { 50% { opacity: 0; } }
    </style>
  </defs>
  <rect width="777" height="376" rx="14" fill="#0d1117"/>
  <rect x="0.5" y="0.5" width="776" height="375" rx="14" fill="none" stroke="#1f2630" stroke-width="1"/>
  <g class="ascii" fill="#cdd9e5" font-size="6.4" xml:space="preserve">
    <text x="114.32 118.16 122.00 141.20 145.04 148.88 152.72 156.56 160.40 164.24 168.08 171.92 175.76 179.60" y="46.0">%***@@@@@@@#=:</text>
    <text x="102.80 106.64 110.48 114.32 118.16 122.00 125.84 129.68 133.52 137.36 141.20 145.04 148.88 152.72 156.56 160.40 164.24 168.08 171.92 175.76 179.60 183.44 187.28 191.12" y="52.4">@@@@@@@@@@@@@@@@@@@@@@@*</text>
    <text x="83.60 87.44 91.28 95.12 98.96 102.80 106.64 110.48 114.32 118.16 122.00 125.84 129.68 133.52 137.36 141.20 145.04 148.88 152.72 156.56 160.40 164.24 168.08 171.92 175.76 179.60 183.44 187.28 191.12 194.96 198.80 202.64 206.48 210.32" y="58.8">**+%@@@@@@@@@@@@@@@@@@@@@@@@@@@@@*</text>
    <text x="68.24 72.08 75.92 79.76 83.60 87.44 91.28 95.12 98.96 102.80 106.64 110.48 114.32 118.16 122.00 125.84 129.68 133.52 137.36 141.20 145.04 148.88 152.72 156.56 160.40 164.24 168.08 171.92 175.76 179.60 183.44 187.28 191.12 194.96 198.80 202.64 206.48 210.32 214.16 218.00" y="65.2">*@@@@@@@@@@@@@@@@@@@@@@@@@@@@@@@@@@@@@@@</text>
    <text x="60.56 64.40 68.24 72.08 75.92 79.76 83.60 87.44 91.28 95.12 98.96 102.80 106.64 110.48 114.32 118.16 122.00 125.84 129.68 133.52 137.36 141.20 145.04 148.88 152.72 156.56 160.40 164.24 168.08 171.92 175.76 179.60 183.44 187.28 191.12 194.96 198.80 202.64 206.48 210.32 214.16 218.00 221.84 225.68" y="71.6">@@@@@@@@@@@@@@@@@@@@@@@@@@@@@@@@@@@@@@@@@@@#</text>
    <text x="56.72 60.56 64.40 68.24 72.08 75.92 79.76 83.60 87.44 91.28 95.12 98.96 102.80 106.64 110.48 114.32 118.16 122.00 125.84 129.68 133.52 137.36 141.20 145.04 148.88 152.72 156.56 160.40 164.24 168.08 171.92 175.76 179.60 183.44 187.28 191.12 194.96 198.80 202.64 206.48 210.32 214.16 218.00 221.84 225.68 229.52 233.36 237.20 241.04" y="78.0">+@@@@@@@@@@@@@@@@@@@@@@@@@@@@@@@@@@@@@@@@@@@@@@%:</text>
    <text x="52.88 56.72 60.56 64.40 68.24 72.08 75.92 79.76 83.60 87.44 91.28 95.12 98.96 102.80 106.64 110.48 114.32 118.16 122.00 125.84 129.68 133.52 137.36 141.20 145.04 148.88 152.72 156.56 160.40 164.24 168.08 171.92 175.76 179.60 183.44 187.28 191.12 194.96 198.80 202.64 206.48 210.32 214.16 218.00 221.84 225.68 229.52 233.36 237.20 241.04 244.88" y="84.4">#@@@@@@@@@@@@@@@@@@@@@@@@@@@@@@@@@@@@@@@@@@@@@@@@@@</text>
    <text x="49.04 52.88 56.72 60.56 64.40 68.24 72.08 75.92 79.76 83.60 87.44 91.28 95.12 98.96 102.80 106.64 110.48 114.32 118.16 122.00 125.84 129.68 133.52 137.36 141.20 145.04 148.88 152.72 156.56 160.40 164.24 168.08 171.92 175.76 179.60 183.44 187.28 191.12 194.96 198.80 202.64 206.48 210.32 214.16 218.00 221.84 225.68 229.52 233.36 237.20 241.04 244.88 248.72" y="90.8">*@@@@@@@@@@@@@@@@@@@@@@@@@@@@@@@@@@@@@@@@@@@@@@@@@@@@</text>
    <text x="49.04 52.88 56.72 60.56 64.40 68.24 72.08 75.92 79.76 83.60 87.44 91.28 95.12 98.96 102.80 106.64 110.48 114.32 118.16 122.00 125.84 129.68 133.52 137.36 141.20 145.04 148.88 152.72 156.56 160.40 164.24 168.08 171.92 175.76 179.60 183.44 187.28 191.12 194.96 198.80 202.64 206.48 210.32 214.16 218.00 221.84 225.68 229.52 233.36 237.20 241.04 244.88 248.72 252.56" y="97.2">@@@@@@@@@@@@@@@@@@@@@@@@@@@@@@@@@@@@@@@@@@@@@@@@@@@@@@</text>
    <text x="49.04 52.88 56.72 60.56 64.40 68.24 72.08 75.92 79.76 83.60 87.44 91.28 95.12 98.96 102.80 106.64 110.48 114.32 118.16 122.00 125.84 129.68 133.52 137.36 141.20 145.04 148.88 152.72 156.56 160.40 164.24 168.08 171.92 175.76 179.60 183.44 187.28 191.12 194.96 198.80 202.64 206.48 210.32 214.16 218.00 221.84 225.68 229.52 233.36 237.20 241.04 244.88 248.72 252.56 256.40" y="103.6">*@@@@@@@@@@@@@@@@@@@@@@@@@@@@@@@@@@@@@@@@@@@@@@@@@@@@@@</text>
    <text x="49.04 52.88 56.72 60.56 64.40 68.24 72.08 75.92 79.76 83.60 87.44 91.28 95.12 98.96 102.80 106.64 110.48 114.32 118.16 122.00 125.84 129.68 133.52 137.36 141.20 145.04 148.88 152.72 156.56 160.40 164.24 168.08 171.92 175.76 179.60 183.44 187.28 191.12 194.96 198.80 202.64 206.48 210.32 214.16 218.00 221.84 225.68 229.52 233.36 237.20 241.04 244.88 248.72 252.56 256.40 260.24" y="110.0">@@@@@@@@@@@@@@@@@@@@@@@@@%@@@@@@@%:=@@@@@@@@@@@@@@@@@@@=</text>
    <text x="45.20 49.04 52.88 56.72 60.56 64.40 68.24 72.08 75.92 79.76 83.60 87.44 91.28 95.12 98.96 102.80 106.64 110.48 114.32 118.16 122.00 125.84 129.68 133.52 137.36 141.20 145.04 148.88 152.72 156.56 160.40 164.24 168.08 171.92 175.76 179.60 183.44 187.28 191.12 194.96 198.80 202.64 206.48 210.32 214.16 218.00 221.84 225.68 229.52 233.36 237.20 241.04 244.88 248.72 252.56 256.40 260.24" y="116.4">@@@@@@@@@@@@@@@@#*+-:+@@@@==+-@@@=:::-+%@@%==#@@@@@@@@@@@</text>
    <text x="41.36 45.20 49.04 52.88 56.72 60.56 64.40 68.24 72.08 75.92 79.76 83.60 87.44 91.28 95.12 98.96 102.80 106.64 110.48 114.32 118.16 122.00 125.84 129.68 133.52 137.36 141.20 145.04 148.88 152.72 156.56 160.40 164.24 168.08 171.92 175.76 179.60 183.44 187.28 191.12 194.96 198.80 202.64 206.48 210.32 214.16 218.00 221.84 225.68 229.52 233.36 237.20 241.04 244.88 248.72 252.56 256.40 260.24 264.08" y="122.8">@@@@@@@@@@@@@#+-:::::::%@@@=:::--::::::::::::::-+#@@@@@@@@=</text>
    <text x="37.52 41.36 45.20 49.04 52.88 56.72 60.56 64.40 68.24 72.08 75.92 79.76 83.60 87.44 91.28 95.12 98.96 102.80 106.64 110.48 114.32 118.16 122.00 125.84 129.68 133.52 137.36 141.20 145.04 148.88 152.72 156.56 160.40 164.24 168.08 171.92 175.76 179.60 183.44 187.28 191.12 194.96 198.80 202.64 206.48 210.32 214.16 218.00 221.84 225.68 229.52 233.36 237.20 241.04 244.88 248.72 252.56 256.40 260.24 264.08" y="129.2">%@@@@@@@@##*-::::::::::::---:::::::::::::::::::::-##%@@@@@@@</text>
    <text x="37.52 41.36 45.20 49.04 52.88 56.72 60.56 64.40 68.24 72.08 75.92 79.76 83.60 87.44 91.28 95.12 98.96 102.80 106.64 110.48 114.32 118.16 122.00 125.84 129.68 133.52 137.36 141.20 145.04 148.88 152.72 156.56 160.40 164.24 168.08 171.92 175.76 179.60 183.44 187.28 191.12 194.96 198.80 202.64 206.48 210.32 214.16 218.00 221.84 225.68 229.52 233.36 237.20 241.04 244.88 248.72 252.56 256.40 260.24 264.08" y="135.6">@@@@@@@@###=::::::::::::::::::::::::::::::::::::::*##%@@@@@@</text>
    <text x="33.68 37.52 41.36 45.20 49.04 52.88 56.72 60.56 64.40 68.24 72.08 75.92 79.76 83.60 87.44 91.28 95.12 98.96 102.80 106.64 110.48 114.32 118.16 122.00 125.84 129.68 133.52 137.36 141.20 145.04 148.88 152.72 156.56 160.40 164.24 168.08 171.92 175.76 179.60 183.44 187.28 191.12 194.96 198.80 202.64 206.48 210.32 214.16 218.00 221.84 225.68 229.52 233.36 237.20 241.04 244.88 248.72 252.56 256.40 260.24 264.08 267.92" y="142.0">-@@@@@@@%###-::::::::::::::::::::::::::::::::::::::*###@@@@@@+</text>
    <text x="37.52 41.36 45.20 49.04 52.88 56.72 60.56 64.40 68.24 72.08 75.92 79.76 83.60 87.44 91.28 95.12 98.96 102.80 106.64 110.48 114.32 118.16 122.00 125.84 129.68 133.52 137.36 141.20 145.04 148.88 152.72 156.56 160.40 164.24 168.08 171.92 175.76 179.60 183.44 187.28 191.12 194.96 198.80 202.64 206.48 210.32 214.16 218.00 221.84 225.68 229.52 233.36 237.20 241.04 244.88 248.72 252.56 256.40 260.24 264.08 267.92" y="148.4">@@@@@@@%###=::::::::::::::::::::::::::::::::::::::*###@@@@@@+</text>
    <text x="37.52 41.36 45.20 49.04 52.88 56.72 60.56 64.40 68.24 72.08 75.92 79.76 83.60 87.44 91.28 125.84 129.68 133.52 137.36 141.20 145.04 148.88 152.72 156.56 160.40 164.24 168.08 171.92 175.76 179.60 183.44 187.28 218.00 221.84 225.68 229.52 233.36 237.20 241.04 244.88 248.72 252.56 256.40 260.24 264.08 267.92" y="154.8">:@@@@@@####=:::::::::::::::::::::::*###%@@@@@#</text>
    <text x="41.36 45.20 49.04 52.88 56.72 60.56 64.40 68.24 72.08 75.92 79.76 83.60 87.44 91.28 95.12 98.96 102.80 106.64 110.48 114.32 118.16 122.00 125.84 129.68 133.52 137.36 141.20 145.04 148.88 152.72 156.56 160.40 164.24 168.08 171.92 175.76 179.60 183.44 187.28 191.12 194.96 198.80 202.64 206.48 210.32 214.16 218.00 221.84 225.68 229.52 233.36 237.20 241.04 244.88 248.72 252.56 256.40 260.24 264.08 267.92" y="161.2">@@@@@%###*--+#####**++-::::::::::::::-=+**#####*=+####%@@@@#</text>
    <text x="41.36 45.20 49.04 52.88 56.72 60.56 64.40 68.24 72.08 75.92 79.76 83.60 87.44 91.28 95.12 98.96 102.80 106.64 110.48 114.32 118.16 122.00 125.84 129.68 133.52 137.36 141.20 145.04 148.88 152.72 156.56 160.40 164.24 168.08 171.92 175.76 179.60 183.44 187.28 191.12 194.96 198.80 202.64 206.48 210.32 214.16 218.00 221.84 225.68 229.52 233.36 237.20 241.04 244.88 248.72 252.56 256.40 260.24 264.08 267.92" y="167.6">%@@@@###%@@@@@@@@@@@@@@@*::::::::::*@@@@@@@@@@@@@@@%###@@@@-</text>
    <text x="41.36 45.20 49.04 52.88 56.72 60.56 64.40 68.24 72.08 75.92 79.76 83.60 87.44 91.28 95.12 98.96 102.80 106.64 110.48 114.32 118.16 122.00 125.84 129.68 133.52 137.36 141.20 145.04 148.88 152.72 156.56 160.40 164.24 168.08 171.92 175.76 179.60 183.44 187.28 191.12 194.96 198.80 202.64 206.48 210.32 214.16 218.00 221.84 225.68 229.52 233.36 237.20 241.04 244.88 248.72 252.56 256.40 260.24 264.08" y="174.0">=@@@###%@@@@@@@@@@@@@@@@@#*********@@@@@@@@@@@@@@@@@%###@@@</text>
    <text x="45.20 49.04 52.88 56.72 60.56 64.40 68.24 72.08 75.92 79.76 83.60 87.44 91.28 95.12 98.96 102.80 106.64 110.48 114.32 118.16 122.00 125.84 129.68 133.52 137.36 141.20 145.04 148.88 152.72 156.56 160.40 164.24 168.08 171.92 175.76 179.60 183.44 187.28 191.12 194.96 198.80 202.64 206.48 210.32 214.16 218.00 221.84 225.68 229.52 233.36 237.20 241.04 244.88 248.72 252.56 256.40 260.24 264.08" y="180.4">@@@##@@@@@@@@@@@@@@@@@@@@%+****+*@@@@@@@@@@@@@@@@@@@@##@@@</text>
    <text x="45.20 49.04 52.88 56.72 60.56 64.40 68.24 72.08 75.92 79.76 83.60 87.44 91.28 95.12 98.96 102.80 106.64 110.48 114.32 118.16 122.00 125.84 129.68 133.52 137.36 141.20 145.04 148.88 152.72 156.56 160.40 164.24 168.08 171.92 175.76 179.60 183.44 187.28 191.12 194.96 198.80 202.64 206.48 210.32 214.16 218.00 221.84 225.68 229.52 233.36 237.20 241.04 244.88 248.72 252.56 256.40 260.24 264.08" y="186.8">@@@#@@@@@@@@@@@@@@@@@@@@@@@-::-@@@@@@@@@@@@@@@@@@@@@@@#@@*</text>
    <text x="45.20 49.04 52.88 56.72 60.56 64.40 68.24 72.08 75.92 79.76 83.60 87.44 91.28 95.12 98.96 102.80 106.64 110.48 114.32 118.16 122.00 125.84 129.68 133.52 137.36 141.20 145.04 148.88 152.72 156.56 160.40 164.24 168.08 171.92 175.76 179.60 183.44 187.28 191.12 194.96 198.80 202.64 206.48 210.32 214.16 218.00 221.84 225.68 229.52 233.36 237.20 241.04 244.88 248.72 252.56 256.40 260.24 264.08" y="193.2">%@@@@@@@@@@@@@@@@@@@@@@@@@@::::=@@@@@@@@@@@@@@@@@@@@@@@@@:</text>
    <text x="45.20 49.04 52.88 56.72 60.56 64.40 68.24 72.08 75.92 79.76 83.60 87.44 91.28 95.12 98.96 102.80 106.64 110.48 114.32 118.16 122.00 125.84 129.68 133.52 137.36 141.20 145.04 148.88 152.72 156.56 160.40 164.24 168.08 171.92 175.76 179.60 183.44 187.28 191.12 194.96 198.80 202.64 206.48 210.32 214.16 218.00 221.84 225.68 229.52 233.36 237.20 241.04 244.88 248.72 252.56 256.40 260.24" y="199.6">:@@@@@@@@@@@@@@@@@@@@@@@@@@:::::@@@@@@@@@@@@@@@@@@@@@@@@@</text>
    <text x="29.84 33.68 37.52 41.36 45.20 49.04 52.88 56.72 60.56 64.40 68.24 72.08 75.92 79.76 83.60 87.44 91.28 95.12 98.96 102.80 106.64 110.48 114.32 118.16 122.00 125.84 129.68 133.52 137.36 141.20 145.04 148.88 152.72 156.56 160.40 164.24 168.08 171.92 175.76 179.60 183.44 187.28 191.12 194.96 198.80 202.64 206.48 210.32 214.16 218.00 221.84 225.68 229.52 233.36 237.20 241.04 244.88 248.72 252.56 256.40 260.24 264.08 267.92 271.76 275.60" y="206.0">+%*==@@:@@@@@@@@@@@@@@@@@@@@@+%::::::@@@@@@@@@@@@@@@@@@@@@+@@--++</text>
    <text x="29.84 33.68 37.52 41.36 45.20 49.04 52.88 60.56 64.40 68.24 72.08 75.92 79.76 83.60 87.44 91.28 95.12 98.96 102.80 106.64 110.48 114.32 118.16 122.00 125.84 129.68 133.52 137.36 141.20 145.04 148.88 152.72 156.56 160.40 164.24 168.08 171.92 175.76 179.60 183.44 187.28 191.12 194.96 198.80 202.64 206.48 210.32 214.16 218.00 221.84 225.68 229.52 233.36 237.20 241.04 244.88 248.72 252.56 256.40 260.24 264.08 267.92 271.76 275.60 279.44" y="212.4">%%@@-#%%@@@@@@@@@@@@@@@@@@%-**:::::::#@@@@@@@@@@@@@@@@@@@:%@-##@=</text>
    <text x="29.84 33.68 37.52 41.36 45.20 49.04 52.88 56.72 60.56 64.40 68.24 72.08 75.92 79.76 83.60 87.44 91.28 95.12 98.96 102.80 106.64 110.48 114.32 118.16 122.00 125.84 129.68 133.52 137.36 141.20 145.04 148.88 152.72 156.56 160.40 164.24 168.08 171.92 175.76 179.60 183.44 187.28 191.12 194.96 198.80 202.64 206.48 210.32 214.16 218.00 221.84 225.68 229.52 233.36 237.20 241.04 244.88 248.72 256.40 260.24 264.08 267.92 271.76 275.60 279.44" y="218.8">++@###%:-@@@@@@@@@@@@@@@@@+:+#:::::::::=%@@@@@@@@@@@@@@@@=###@**:</text>
    <text x="29.84 33.68 37.52 41.36 45.20 49.04 52.88 56.72 60.56 64.40 68.24 72.08 75.92 79.76 83.60 87.44 91.28 95.12 98.96 102.80 106.64 110.48 114.32 118.16 122.00 125.84 129.68 133.52 137.36 141.20 148.88 152.72 156.56 160.40 164.24 168.08 171.92 175.76 179.60 183.44 187.28 191.12 194.96 198.80 202.64 206.48 210.32 214.16 218.00 221.84 225.68 229.52 233.36 237.20 241.04 244.88 248.72 252.56 256.40 260.24 264.08 267.92 271.76 275.60" y="225.2">:#@:-@@:::#@@@@@@@@@@@@#==+:*=::::::::+=-#@@@@@@@@@@@@@-::@@-=%*</text>
    <text x="33.68 37.52 41.36 45.20 49.04 52.88 56.72 60.56 64.40 68.24 72.08 75.92 79.76 83.60 87.44 91.28 95.12 98.96 102.80 106.64 110.48 114.32 122.00 125.84 129.68 133.52 137.36 141.20 145.04 148.88 152.72 156.56 160.40 164.24 168.08 171.92 175.76 179.60 183.44 187.28 194.96 198.80 202.64 206.48 210.32 214.16 218.00 221.84 225.68 229.52 233.36 237.20 241.04 244.88 248.72 252.56 256.40 260.24 264.08 267.92 271.76 275.60" y="231.6">%+::%@-::::+#@@@@@%*=::%=-##=:::-+*+-=%::-*%@@@@@%*-:::-@%::+#</text>
    <text x="33.68 37.52 45.20 49.04 52.88 56.72 60.56 64.40 68.24 72.08 83.60 87.44 91.28 95.12 98.96 102.80 110.48 114.32 118.16 122.00 125.84 129.68 133.52 137.36 141.20 145.04 148.88 152.72 156.56 160.40 164.24 168.08 171.92 175.76 179.60 183.44 187.28 191.12 194.96 198.80 206.48 210.32 214.16 218.00 221.84 225.68 229.52 233.36 237.20 241.04 244.88 248.72 252.56 256.40 260.24 264.08 267.92 271.76 275.60" y="238.0">+-=*@@=:::::::::::::+%@@@@@%%@@@@%%*:::::::::::::::=%@*=:==</text>
    <text x="37.52 41.36 45.20 49.04 52.88 56.72 60.56 64.40 68.24 72.08 75.92 79.76 83.60 87.44 91.28 95.12 98.96 102.80 106.64 110.48 114.32 118.16 122.00 125.84 129.68 133.52 137.36 141.20 145.04 148.88 152.72 156.56 160.40 164.24 168.08 171.92 175.76 179.60 183.44 187.28 191.12 194.96 198.80 202.64 206.48 210.32 214.16 218.00 221.84 225.68 229.52 233.36 237.20 241.04 244.88 248.72 252.56 256.40 260.24 264.08 267.92 271.76" y="244.4">*-+%*@#+-::::::::::::::::-::-+**=-:==-:::::::::::::::-+#@*%+-*</text>
    <text x="37.52 41.36 45.20 49.04 52.88 56.72 60.56 64.40 68.24 72.08 75.92 79.76 83.60 87.44 91.28 95.12 98.96 102.80 106.64 110.48 114.32 118.16 122.00 125.84 129.68 133.52 156.56 160.40 168.08 179.60 183.44 187.28 191.12 194.96 198.80 202.64 206.48 210.32 214.16 218.00 221.84 225.68 229.52 233.36 237.20 241.04 244.88 248.72 252.56 256.40 260.24 264.08 267.92 271.76" y="250.8">+#=--@@#*=::::::::::::::::=+::::::::::::::::=*#@@--=%-</text>
    <text x="37.52 41.36 45.20 49.04 56.72 60.56 64.40 68.24 72.08 75.92 79.76 83.60 87.44 91.28 95.12 98.96 102.80 106.64 110.48 114.32 118.16 122.00 125.84 129.68 133.52 137.36 141.20 145.04 148.88 152.72 156.56 160.40 164.24 168.08 171.92 175.76 179.60 183.44 187.28 191.12 194.96 198.80 202.64 206.48 210.32 214.16 218.00 221.84 225.68 229.52 233.36 237.20 241.04 244.88 248.72 252.56 256.40 260.24 264.08 267.92" y="257.2">-+::=@###*=:::::::::::::-=++==**==-::::::::::::::-*###@=-=+%</text>
    <text x="41.36 45.20 49.04 52.88 56.72 60.56 64.40 68.24 72.08 75.92 79.76 83.60 87.44 91.28 95.12 98.96 102.80 106.64 110.48 114.32 118.16 122.00 125.84 129.68 133.52 137.36 141.20 145.04 148.88 152.72 156.56 160.40 164.24 168.08 171.92 175.76 179.60 183.44 187.28 191.12 194.96 198.80 202.64 206.48 210.32 214.16 218.00 221.84 225.68 229.52 233.36 237.20 241.04 244.88 248.72 252.56 256.40 260.24 264.08 267.92 271.76" y="263.6">+---=%@####+::::::::-+*%%%%%%%%%%%%#*+-:::::::::=####@@++%@@=</text>
    <text x="64.40 68.24 72.08 75.92 79.76 83.60 87.44 91.28 95.12 98.96 102.80 106.64 110.48 114.32 118.16 122.00 125.84 129.68 133.52 137.36 141.20 145.04 148.88 152.72 156.56 160.40 164.24 168.08 171.92 175.76 179.60 183.44 187.28 191.12 194.96 198.80 202.64 206.48 210.32 214.16 218.00 221.84 225.68 229.52 233.36 237.20 241.04 244.88 252.56 256.40 260.24 264.08 267.92" y="270.0">#%####=:::::+##@@%%%#%%%%%%%%@@@@*#-:::::=####%%#%#+-</text>
    <text x="68.24 72.08 75.92 79.76 83.60 87.44 91.28 95.12 98.96 102.80 106.64 110.48 114.32 118.16 122.00 125.84 129.68 133.52 137.36 141.20 145.04 148.88 152.72 156.56 160.40 164.24 168.08 171.92 175.76 179.60 183.44 187.28 191.12 194.96 198.80 202.64 206.48 210.32 214.16 218.00 221.84 225.68 229.52 233.36 237.20 241.04" y="276.4">@####*::::::::-*#############*=-::::::::*####@</text>
    <text x="72.08 75.92 79.76 83.60 87.44 91.28 95.12 98.96 102.80 106.64 110.48 114.32 118.16 122.00 125.84 129.68 133.52 137.36 141.20 145.04 148.88 152.72 156.56 160.40 164.24 168.08 171.92 175.76 179.60 183.44 187.28 191.12 194.96 198.80 202.64 206.48 210.32 214.16 218.00 221.84 225.68 229.52 233.36 237.20 241.04" y="282.8">@####=::::::::::-=*######+-:::::::::::=####@:</text>
    <text x="72.08 75.92 79.76 83.60 87.44 91.28 95.12 98.96 102.80 106.64 110.48 114.32 118.16 122.00 125.84 129.68 133.52 137.36 141.20 145.04 148.88 152.72 156.56 160.40 164.24 168.08 171.92 175.76 179.60 183.44 187.28 191.12 194.96 198.80 202.64 206.48 210.32 214.16 218.00 221.84 225.68 229.52 233.36 237.20" y="289.2">:@###*::::::::::::::---:::::::::::::::*###@:</text>
    <text x="75.92 79.76 83.60 87.44 91.28 95.12 98.96 102.80 106.64 110.48 114.32 118.16 122.00 125.84 129.68 133.52 137.36 141.20 145.04 148.88 152.72 156.56 160.40 164.24 168.08 171.92 175.76 179.60 183.44 187.28 191.12 194.96 198.80 202.64 206.48 210.32 214.16 218.00 221.84 225.68 229.52 233.36" y="295.6">@@%##=::::::::::-++++=++=:::::::::::=##%@#</text>
    <text x="75.92 79.76 83.60 87.44 91.28 95.12 98.96 102.80 106.64 110.48 114.32 118.16 122.00 125.84 129.68 133.52 137.36 141.20 145.04 148.88 152.72 156.56 160.40 164.24 168.08 171.92 175.76 179.60 183.44 187.28 191.12 194.96 198.80 202.64 206.48 210.32 214.16 218.00 221.84 225.68 229.52" y="302.0">+*@@%#=::::::::::::::::::::::::::::=*%@@#</text>
    <text x="75.92 79.76 83.60 87.44 91.28 95.12 98.96 102.80 106.64 110.48 114.32 118.16 122.00 125.84 129.68 133.52 137.36 141.20 145.04 148.88 152.72 156.56 160.40 164.24 168.08 171.92 175.76 179.60 183.44 187.28 191.12 194.96 198.80 202.64 206.48 210.32 214.16 218.00 221.84 225.68 229.52" y="308.4">=--#@@%+::::::::::::::::::::::::::+%@@*:*</text>
    <text x="75.92 79.76 83.60 87.44 91.28 95.12 98.96 102.80 106.64 110.48 114.32 118.16 122.00 125.84 129.68 133.52 137.36 141.20 145.04 148.88 152.72 156.56 160.40 164.24 168.08 171.92 175.76 179.60 183.44 187.28 191.12 194.96 198.80 202.64 206.48 210.32 214.16 218.00 221.84 225.68 229.52" y="314.8">-=::=%@@%+::::::::::::::::::::::+%@@#-::#</text>
    <text x="75.92 79.76 87.44 91.28 95.12 98.96 102.80 106.64 110.48 114.32 118.16 122.00 125.84 129.68 133.52 137.36 141.20 145.04 148.88 152.72 156.56 160.40 164.24 168.08 171.92 175.76 179.60 183.44 187.28 191.12 194.96 198.80 202.64 206.48 210.32 214.16 218.00 221.84 225.68 229.52" y="321.2">-=::-+%@@@*=-::::::::::::::-=*@@@#=::::#</text>
    <text x="79.76 83.60 87.44 91.28 95.12 98.96 102.80 106.64 110.48 114.32 118.16 122.00 125.84 129.68 133.52 137.36 141.20 145.04 148.88 152.72 156.56 160.40 164.24 168.08 171.92 175.76 179.60 183.44 187.28 191.12 194.96 198.80 202.64 206.48 210.32 214.16 218.00 221.84 225.68 229.52" y="327.6">=-::::-+#%@@@%#**+++++***#%@@@%*=:::::=+</text>
    <text x="87.44 91.28 95.12 98.96 102.80 106.64 110.48 114.32 118.16 122.00 125.84 129.68 133.52 137.36 141.20 145.04 148.88 152.72 156.56 160.40 164.24 168.08 171.92 175.76 179.60 183.44 187.28 191.12 194.96 198.80 202.64 206.48 210.32 214.16 218.00 221.84" y="334.0">-=::::-+*#%%@@@@@@@@@@@@%%#*=::::-=-</text>
    <text x="95.12 98.96 102.80 106.64 110.48 114.32 118.16 122.00 125.84 129.68 133.52 137.36 141.20 145.04 148.88 152.72 156.56 160.40 164.24 168.08 171.92 175.76 179.60 183.44 187.28 191.12 194.96 198.80 202.64 206.48 210.32 214.16" y="340.4">:=-:::-+**############*+-::::-=:</text>
    <text x="106.64 110.48 114.32 118.16 122.00 125.84 129.68 133.52 137.36 141.20 145.04 148.88 152.72 156.56 160.40 164.24 168.08 171.92 175.76 179.60 183.44 187.28 191.12 194.96 198.80 202.64" y="346.8">:=--::-=+++*****++-:::-=-:</text>
    <text x="122.00 125.84 129.68 133.52 137.36 141.20 145.04 148.88 152.72 156.56 160.40 164.24 168.08 171.92 175.76 179.60 183.44 187.28" y="353.2">----::::::::::--=:</text>
    <text x="141.20 145.04 148.88 152.72 156.56 160.40 164.24 168.08" y="359.6">:------:</text>
  </g>
  <g class="ln" style="animation-delay:0.50s">
    <circle cx="333.28" cy="36" r="3.2" fill="#1ed760"/>
    <circle cx="333.28" cy="46" r="3.2" fill="#1ed760"/>
    <circle cx="342.28" cy="41" r="3.2" fill="#1ed760"/>
    <text x="355.28" y="22" font-size="30" font-weight="bold" fill="#ffffff">VIN</text>
  </g>
  <text class="ln" style="animation-delay:0.62s" x="329.28" y="58" font-size="12" fill="#1ed760">Software Developer</text>
  <text class="ln" style="animation-delay:0.74s" x="329.28" y="86" font-size="12"><tspan fill="#1ed760" font-weight="bold">kevin</tspan><tspan fill="#7d8590">@</tspan><tspan fill="#1ed760" font-weight="bold">vindev</tspan></text>
  <text class="ln" style="animation-delay:0.86s" x="329.28" y="101" font-size="12" fill="#7d8590">──────────────────────────────</text>
  <text class="ln" style="animation-delay:0.98s" x="329.28" y="122" font-size="12"><tspan fill="#1ed760" font-weight="bold">Name</tspan><tspan x="407.28" fill="#e6edf3">Kevin J. González Velandia</tspan></text>
  <text class="ln" style="animation-delay:1.10s" x="329.28" y="146" font-size="12"><tspan fill="#1ed760" font-weight="bold">Role</tspan><tspan x="407.28" fill="#e6edf3">FullStack Dev · Implementation Lead</tspan></text>
  <text class="ln" style="animation-delay:1.22s" x="329.28" y="170" font-size="12"><tspan fill="#1ed760" font-weight="bold">Company</tspan><tspan x="407.28" fill="#e6edf3">Clonai</tspan></text>
  <text class="ln" style="animation-delay:1.34s" x="329.28" y="194" font-size="12"><tspan fill="#1ed760" font-weight="bold">Learning</tspan><tspan x="407.28" fill="#e6edf3">Agentic patterns · Advanced TS</tspan></text>
  <text class="ln" style="animation-delay:1.46s" x="329.28" y="218" font-size="12"><tspan fill="#1ed760" font-weight="bold">Traits</tspan><tspan x="407.28" fill="#e6edf3">Multifaceted · Motivated · Engaged · Focused</tspan></text>
  <text class="ln" style="animation-delay:1.58s" x="329.28" y="242" font-size="12"><tspan fill="#1ed760" font-weight="bold">Stack</tspan><tspan x="407.28" fill="#e6edf3">Astro · TypeScript · Java · React · Node</tspan></text>
  <text class="ln" style="animation-delay:1.70s" x="329.28" y="266" font-size="12"><tspan fill="#1ed760" font-weight="bold">Editor</tspan><tspan x="407.28" fill="#e6edf3">nvim (btw)</tspan></text>
  <text class="ln" style="animation-delay:1.82s" x="329.28" y="290" font-size="12"><tspan fill="#1ed760" font-weight="bold">Uptime</tspan><tspan x="407.28" fill="#e6edf3">online &amp; shipping</tspan></text>
  <g class="ln" style="animation-delay:1.94s">
    <rect x="329.28" y="322" width="16" height="16" rx="3" fill="#0d1117" stroke="#30363d" stroke-width="1"/>
    <rect x="351.28" y="322" width="16" height="16" rx="3" fill="#ff6b6b"/>
    <rect x="373.28" y="322" width="16" height="16" rx="3" fill="#1ed760"/>
    <rect x="395.28" y="322" width="16" height="16" rx="3" fill="#ffd866"/>
    <rect x="417.28" y="322" width="16" height="16" rx="3" fill="#6cb6ff"/>
    <rect x="439.28" y="322" width="16" height="16" rx="3" fill="#d2a8ff"/>
    <rect x="461.28" y="322" width="16" height="16" rx="3" fill="#56d4dd"/>
    <rect x="483.28" y="322" width="16" height="16" rx="3" fill="#e6edf3"/>
    <rect class="cur" x="511.28" y="322" width="8" height="16" fill="#1ed760"/>
  </g>
</svg>