<?xml version="1.0" encoding="UTF-8"?>
<svg xmlns="http://www.w3.org/2000/svg" width="800" height="332" viewBox="0 0 800 332" font-family="ui-monospace, 'Cascadia Code', 'JetBrains Mono', Menlo, Consolas, monospace">
  <defs>
    <style>
      text { dominant-baseline: text-before-edge; }
      .ascii { opacity: 0; animation: fade 0.7s ease 0.1s forwards; }
      .ln { opacity: 0; animation: reveal 0.45s cubic-bezier(.2,.8,.2,1) forwards; }
      .cur { animation: blink 1s steps(1) infinite; }
      @keyframes fade { to { opacity: 1; } }
      @keyframes reveal { from { opacity: 0; } to { opacity: 1; } }
      @keyframes blink { 50% { opacity: 0; } }
      @keyframes typeon { to { clip-path: inset(0 0 0 0); } }
    </style>
  </defs>
  <rect width="800" height="332" rx="14" fill="#0d1117"/>
  <rect x="0.5" y="0.5" width="799" height="331" rx="14" fill="none" stroke="#1f2630" stroke-width="1"/>
  <g class="ascii" fill="#cdd9e5" font-size="6.4" xml:space="preserve">
    <text x="137.36 141.20 145.04 148.88 152.72 156.56 160.40 164.24 168.08 171.92 175.76 179.60 187.28 191.12 194.96 198.80 225.68 229.52 233.36" y="46.0">.--+##*++**=.-::.:.</text>
    <text x="118.16 122.00 125.84 129.68 133.52 137.36 141.20 145.04 148.88 152.72 156.56 160.40 164.24 168.08 171.92 175.76 179.60 183.44 187.28 191.12 194.96 198.80 202.64 206.48 210.32 214.16 218.00 221.84 225.68 229.52 233.36 237.20 241.04 244.88" y="52.4">:=:=*##%@@@@@@@@@%@@%@%%*-*%%%%%*:</text>
    <text x="98.96 102.80 106.64 110.48 114.32 118.16 122.00 125.84 129.68 133.52 137.36 141.20 145.04 148.88 152.72 156.56 160.40 164.24 168.08 171.92 175.76 179.60 183.44 187.28 191.12 194.96 198.80 202.64 206.48 210.32 214.16 218.00 221.84 225.68 229.52 233.36 237.20 241.04 244.88" y="58.8">.-#%%@@@@@@@@@@@@@@@@@@@@@@@@@@@@*..*@+</text>
    <text x="87.44 91.28 95.12 98.96 102.80 106.64 110.48 114.32 118.16 122.00 125.84 129.68 133.52 137.36 141.20 145.04 148.88 152.72 156.56 160.40 164.24 168.08 171.92 175.76 179.60 183.44 187.28 191.12 194.96 198.80 202.64 206.48 210.32 214.16 218.00 221.84 225.68 229.52 233.36 237.20 241.04 244.88" y="65.2">+*%@@@@@@@@@@@@@@@@@@@@@@@@@@@@@@@@@@%##%:</text>
    <text x="83.60 87.44 91.28 95.12 98.96 102.80 106.64 110.48 114.32 118.16 122.00 125.84 129.68 133.52 137.36 141.20 145.04 148.88 152.72 156.56 160.40 164.24 168.08 171.92 175.76 179.60 183.44 187.28 191.12 194.96 198.80 202.64 206.48 210.32 214.16 218.00 221.84 225.68 229.52 233.36 237.20 241.04 244.88 248.72 252.56 256.40 260.24" y="71.6">.:*%@@####%@@@@@@@@@@@@@@@@@@@@@@@@@@@@@@#.===.</text>
    <text x="79.76 83.60 87.44 91.28 95.12 98.96 102.80 106.64 110.48 114.32 118.16 122.00 125.84 129.68 133.52 137.36 141.20 145.04 148.88 152.72 156.56 160.40 164.24 168.08 171.92 175.76 179.60 183.44 187.28 191.12 194.96 198.80 202.64 206.48 210.32 214.16 218.00 221.84 225.68 229.52 233.36 237.20 241.04 244.88 248.72 252.56 256.40 260.24 264.08" y="78.0">.+*@@@#%@@@@@@@@%*%@@@@@@@@@@@@@@@@@@@@@@@@@@#**-</text>
    <text x="75.92 79.76 83.60 87.44 91.28 95.12 98.96 102.80 106.64 110.48 114.32 118.16 122.00 125.84 129.68 133.52 137.36 141.20 145.04 148.88 152.72 156.56 160.40 164.24 168.08 171.92 175.76 179.60 183.44 187.28 191.12 194.96 198.80 202.64 206.48 210.32 214.16 218.00 221.84 225.68 229.52 233.36 237.20 241.04 244.88 248.72 252.56 256.40 260.24 264.08 267.92 271.76" y="84.4">.**@@@#@@@@@@@@@@#*%@@@@@@@@@@@@@@@@@@@@@@@@@@@@@%#:</text>
    <text x="72.08 75.92 79.76 83.60 87.44 91.28 95.12 98.96 102.80 106.64 110.48 114.32 118.16 122.00 125.84 129.68 133.52 137.36 141.20 145.04 148.88 152.72 156.56 160.40 164.24 168.08 171.92 175.76 179.60 183.44 187.28 191.12 194.96 198.80 202.64 206.48 210.32 214.16 218.00 221.84 225.68 229.52 233.36 237.20 241.04 244.88 248.72 252.56 256.40 260.24 264.08 267.92 271.76 275.60" y="90.8">=%@@@*-#@@@@@@@@@@+@@@@@@@@@@@@@@@@@@@@@@@@@@@@@@@@@%=</text>
    <text x="72.08 75.92 79.76 83.60 87.44 91.28 95.12 98.96 102.80 106.64 110.48 114.32 118.16 122.00 125.84 129.68 133.52 137.36 141.20 145.04 148.88 152.72 156.56 160.40 164.24 168.08 171.92 175.76 179.60 183.44 187.28 191.12 194.96 198.80 202.64 206.48 210.32 214.16 218.00 221.84 225.68 229.52 233.36 237.20 241.04 244.88 248.72 252.56 256.40 260.24 264.08 267.92 271.76 275.60 279.44 283.28" y="97.2">*@@@%-.-#@@@@@@@@@*@@@@@@@@@@@@@@@@@@@@@@@@@@@@@@@@@%*+.</text>
    <text x="72.08 75.92 79.76 83.60 87.44 91.28 95.12 98.96 102.80 106.64 110.48 114.32 118.16 122.00 125.84 129.68 133.52 137.36 141.20 145.04 148.88 152.72 156.56 160.40 164.24 168.08 171.92 175.76 179.60 183.44 187.28 191.12 194.96 198.80 202.64 206.48 210.32 214.16 218.00 221.84 225.68 229.52 233.36 237.20 241.04 244.88 248.72 252.56 256.40 260.24 264.08 267.92 271.76 279.44 283.28 287.12" y="103.6">:@@@%%@@%%%#%@@@@@@@@@@@@@@@@#@@@@@@@@@@@@@@@@@@@@@@@:#=</text>
    <text x="75.92 79.76 83.60 87.44 91.28 95.12 98.96 102.80 106.64 110.48 114.32 118.16 122.00 125.84 129.68 133.52 137.36 141.20 145.04 148.88 152.72 156.56 160.40 164.24 168.08 171.92 175.76 179.60 183.44 187.28 191.12 194.96 198.80 202.64 206.48 210.32 214.16 218.00 221.84 225.68 229.52 233.36 237.20 241.04 244.88 248.72 252.56 256.40 260.24 264.08 267.92 271.76 275.60 279.44 283.28 287.12 290.96" y="110.0">+@@@@@@@@@@@@@@@@@@@@@@%%%#+.:=***+*@@@@@@@@@@@@@#-++%%*-</text>
    <text x="75.92 79.76 83.60 87.44 91.28 95.12 98.96 102.80 106.64 110.48 114.32 118.16 122.00 125.84 129.68 133.52 137.36 141.20 145.04 148.88 152.72 156.56 160.40 198.80 210.32 214.16 218.00 221.84 225.68 229.52 233.36 237.20 241.04 244.88 248.72 252.56 256.40 260.24 264.08 267.92 271.76 275.60 279.44 283.28" y="116.4">+*@@@@@@@@@@@@@@@@@@%*-.+@@@@@@@@@@%*=+#@@@%</text>
    <text x="79.76 83.60 87.44 91.28 95.12 98.96 102.80 106.64 110.48 114.32 118.16 122.00 125.84 129.68 133.52 137.36 141.20 145.04 148.88 214.16 218.00 221.84 225.68 229.52 233.36 237.20 241.04 244.88 248.72 252.56 256.40 260.24 264.08 267.92 271.76 275.60 279.44 283.28 287.12" y="122.8">:@@@@@@@@@@@%#%#*-.+@@@@@@@%%%@@@@@@@%-</text>
    <text x="79.76 83.60 87.44 91.28 95.12 98.96 102.80 106.64 110.48 114.32 118.16 122.00 125.84 129.68 133.52 137.36 218.00 221.84 225.68 229.52 233.36 237.20 241.04 244.88 248.72 252.56 256.40 260.24 264.08 267.92 271.76 275.60 279.44 283.28 287.12" y="129.2">:%@@@@@@@@@%*#*-+@@@@@@@@@@@@@@@@@%</text>
    <text x="83.60 87.44 91.28 95.12 98.96 102.80 106.64 110.48 114.32 118.16 122.00 125.84 129.68 133.52 137.36 145.04 164.24 168.08 171.92 175.76 179.60 183.44 187.28 191.12 194.96 198.80 202.64 206.48 210.32 218.00 221.84 225.68 229.52 233.36 237.20 241.04 244.88 248.72 252.56 256.40 260.24 264.08 267.92 271.76 275.60 279.44 283.28" y="135.6">+@@@@@@@@@%*+=-.-===++++==-:.=@@@@@@@@@@@@@@@@-</text>
    <text x="83.60 87.44 91.28 95.12 98.96 102.80 106.64 110.48 118.16 125.84 129.68 133.52 137.36 141.20 145.04 164.24 168.08 171.92 175.76 179.60 183.44 187.28 191.12 194.96 198.80 202.64 206.48 210.32 214.16 221.84 225.68 229.52 233.36 237.20 241.04 244.88 248.72 252.56 256.40 260.24 264.08 267.92 271.76 275.60 279.44" y="142.0">-#-+@@@*-=@@+:=-=#===-==-:::.::*@@@@@@@@@@@*-</text>
    <text x="98.96 102.80 106.64 110.48 114.32 118.16 122.00 125.84 129.68 133.52 137.36 141.20 145.04 160.40 164.24 168.08 171.92 175.76 179.60 183.44 187.28 191.12 194.96 198.80 202.64 206.48 210.32 233.36 237.20 241.04 244.88 248.72 252.56 256.40 260.24 264.08 267.92 271.76" y="148.4">=#@+::-+@@-*.-+#%%%%#*+++-.*@%#*%@@@%-</text>
    <text x="106.64 125.84 129.68 133.52 137.36 141.20 164.24 183.44 187.28 191.12 194.96 198.80 202.64 206.48 210.32 233.36 237.20 241.04 244.88 248.72 252.56 256.40 260.24 264.08 267.92" y="154.8">%:=-+-.+%@@@%*-.=:+=+*%+.</text>
    <text x="106.64 133.52 137.36 164.24 168.08 171.92 175.76 179.60 183.44 187.28 191.12 194.96 198.80 237.20 241.04 244.88 252.56 256.40 260.24" y="161.2">%:+=+=--+%#*--*=++=</text>
    <text x="106.64 110.48 133.52 137.36 171.92 175.76 233.36 237.20 241.04 244.88 248.72 252.56 256.40" y="167.6">#.*..::+:*-+*</text>
    <text x="106.64 110.48 133.52 137.36 233.36 237.20 241.04 244.88 248.72 252.56" y="174.0">+++:-:=:++</text>
    <text x="110.48 114.32 137.36 225.68 229.52 233.36 237.20 241.04 244.88 248.72" y="180.4">#---=#++=.</text>
    <text x="110.48 114.32 118.16 129.68 164.24 218.00 221.84 225.68 229.52 233.36 237.20 241.04" y="186.8">.#:==.**%%+=</text>
    <text x="114.32 118.16 122.00 129.68 133.52 137.36 141.20 145.04 148.88 152.72 156.56 160.40 164.24 214.16 218.00 221.84 225.68 229.52 233.36 241.04" y="193.2">:#:-==========*-*=#.</text>
    <text x="118.16 122.00 125.84 198.80 202.64 206.48 210.32 214.16 218.00 225.68 229.52 233.36" y="199.6">:#:.=#%+.#-=</text>
    <text x="122.00 125.84 129.68 183.44 187.28 191.12 194.96 198.80 202.64 206.48 210.32 225.68 229.52" y="206.0">:#.-+*%@%+.*=</text>
    <text x="125.84 129.68 133.52 137.36 141.20 145.04 148.88 152.72 156.56 160.40 164.24 168.08 171.92 175.76 179.60 183.44 187.28 191.12 194.96 198.80 225.68 229.52 241.04 244.88 248.72 252.56" y="212.4">:+++==-::-=+*%@@@%*-=*:*+=</text>
    <text x="141.20 145.04 148.88 152.72 156.56 160.40 164.24 168.08 171.92 175.76 179.60 183.44 187.28 225.68 229.52 233.36 241.04 244.88 252.56" y="218.8">:--==%@@@@%*-.%:*:#</text>
    <text x="145.04 148.88 152.72 156.56 160.40 164.24 168.08 171.92 175.76 229.52 233.36 237.20 241.04 252.56 275.60 279.44 283.28 287.12" y="225.2">:=+*%#+=:+%**#=+#:</text>
    <text x="102.80 106.64 110.48 114.32 118.16 122.00 125.84 129.68 133.52 137.36 141.20 145.04 148.88 152.72 160.40 164.24 229.52 233.36 237.20 241.04 248.72 252.56 256.40 267.92 271.76 275.60 283.28 287.12" y="231.6">-=+++*#%@#++#-=*:@@:.#.:*-#.</text>
    <text x="87.44 91.28 95.12 98.96 102.80 106.64 110.48 114.32 118.16 122.00 125.84 129.68 133.52 137.36 145.04 148.88 160.40 164.24 221.84 225.68 229.52 233.36 237.20 248.72 252.56 256.40 260.24 264.08 267.92 271.76 279.44 283.28" y="238.0">-*%@@@@@@@@@@=*:.=.+%@*+@@#**.++</text>
    <text x="79.76 83.60 87.44 91.28 95.12 98.96 102.80 106.64 110.48 114.32 118.16 122.00 125.84 129.68 133.52 137.36 141.20 145.04 210.32 214.16 218.00 221.84 225.68 229.52 233.36 237.20 244.88 248.72 252.56 256.40 260.24 264.08 275.60 279.44 283.28 287.12" y="244.4">-#@@@@@@@@@#+%@%==.=#@@@%..%@@%=+%+:</text>
    <text x="75.92 79.76 83.60 87.44 91.28 95.12 98.96 102.80 106.64 110.48 114.32 118.16 129.68 133.52 137.36 141.20 145.04 148.88 194.96 198.80 202.64 206.48 210.32 214.16 218.00 221.84 225.68 229.52 233.36 244.88 248.72 252.56 256.40 260.24 267.92 271.76 275.60 279.44 283.28 287.12 290.96 294.80 298.64" y="250.8">+@@@@@@@@#+:-@@@*-.-+#@@@@@@=*@@*..*@@@@%*:</text>
    <text x="72.08 75.92 79.76 83.60 87.44 91.28 95.12 98.96 102.80 106.64 133.52 137.36 141.20 145.04 148.88 152.72 156.56 160.40 164.24 168.08 171.92 175.76 179.60 183.44 187.28 191.12 194.96 198.80 202.64 206.48 210.32 214.16 218.00 221.84 225.68 229.52 241.04 244.88 248.72 252.56 264.08 267.92 271.76 275.60 279.44 283.28 287.12 290.96 294.80 298.64 302.48" y="257.2">+@@@@@@@*-:#@@@%##*****##%@@@@@%*-%*-@#-+%@@@@@@@@+</text>
    <text x="68.24 72.08 75.92 79.76 83.60 87.44 91.28 95.12 98.96 141.20 145.04 148.88 152.72 156.56 160.40 164.24 168.08 171.92 175.76 179.60 183.44 187.28 191.12 194.96 198.80 202.64 206.48 210.32 221.84 225.68 244.88 256.40 260.24 264.08 267.92 271.76 275.60 279.44 283.28 287.12 290.96 294.80 298.64 302.48" y="263.6">-@@@@@%+.:##%%@@@@@@@@%%%#+:++:.#@@@@@@@@@*:</text>
    <text x="68.24 72.08 75.92 79.76 83.60 87.44 91.28 148.88 152.72 156.56 160.40 164.24 168.08 171.92 175.76 179.60 183.44 187.28 191.12 194.96 198.80 218.00 221.84 229.52 233.36 256.40 260.24 267.92 271.76 275.60 279.44 283.28 287.12 290.96 294.80" y="270.0">#@@@@*.-=--=========.*=-::*-*@@@@#-</text>
    <text x="68.24 72.08 75.92 79.76 83.60 214.16 218.00 233.36 237.20 241.04 244.88 248.72 252.56 256.40 260.24 271.76 275.60 279.44 283.28 287.12" y="276.4">+%@@+=*=+++++#.=%@*-</text>
    <text x="72.08 75.92 79.76 83.60 214.16 218.00 252.56 256.40 260.24 264.08 267.92 271.76 275.60 279.44" y="282.8">.+#:#:.=+++*::</text>
    <text x="214.16 237.20 241.04 244.88 248.72 252.56 256.40" y="289.2">#.=++=-</text>
    <text x="210.32 214.16 233.36 237.20 241.04 248.72 252.56 256.40" y="295.6">.#=*:-=:</text>
    <text x="214.16 229.52 233.36" y="302.0">#=-</text>
    <text x="214.16" y="308.4">-</text>
  </g>
  <g class="ln" style="animation-delay:0.25s">
    <circle cx="356.32" cy="36" r="3.2" fill="#1ed760"/>
    <circle cx="356.32" cy="46" r="3.2" fill="#1ed760"/>
    <circle cx="365.32" cy="41" r="3.2" fill="#1ed760"/>
    <text x="378.32" y="22" font-size="30" font-weight="bold" fill="#ffffff">VIN</text>
  </g>
  <text x="352.32" y="58" font-size="12" style="clip-path: inset(0 100% 0 0); animation: typeon 0.25s steps(18) 0.45s forwards;"><tspan fill="#1ed760">Software Developer</tspan></text>
  <text x="352.32" y="86" font-size="12" style="clip-path: inset(0 100% 0 0); animation: typeon 0.20s steps(14) 0.76s forwards;"><tspan fill="#1ed760" font-weight="bold">omarchy</tspan><tspan fill="#7d8590">@</tspan><tspan fill="#1ed760" font-weight="bold">vindev</tspan></text>
  <text x="352.32" y="101" font-size="12" style="clip-path: inset(0 100% 0 0); animation: typeon 0.42s steps(30) 1.02s forwards;"><tspan fill="#7d8590">──────────────────────────────</tspan></text>
  <text x="352.32" y="122" font-size="12" style="clip-path: inset(0 100% 0 0); animation: typeon 0.52s steps(37) 1.50s forwards;"><tspan fill="#1ed760" font-weight="bold">Name</tspan><tspan x="430.32" fill="#e6edf3">Kevin J. González Velandia</tspan></text>
  <text x="352.32" y="146" font-size="12" style="clip-path: inset(0 100% 0 0); animation: typeon 0.64s steps(46) 2.08s forwards;"><tspan fill="#1ed760" font-weight="bold">Role</tspan><tspan x="430.32" fill="#e6edf3">FullStack Dev · Implementation Lead</tspan></text>
  <text x="352.32" y="170" font-size="12" style="clip-path: inset(0 100% 0 0); animation: typeon 0.57s steps(41) 2.78s forwards;"><tspan fill="#1ed760" font-weight="bold">Learning</tspan><tspan x="430.32" fill="#e6edf3">Agentic patterns · Advanced TS</tspan></text>
  <text x="352.32" y="194" font-size="12" style="clip-path: inset(0 100% 0 0); animation: typeon 0.77s steps(55) 3.41s forwards;"><tspan fill="#1ed760" font-weight="bold">Traits</tspan><tspan x="430.32" fill="#e6edf3">Multifaceted · Motivated · Engaged · Focused</tspan></text>
  <text x="352.32" y="218" font-size="12" style="clip-path: inset(0 100% 0 0); animation: typeon 0.71s steps(51) 4.24s forwards;"><tspan fill="#1ed760" font-weight="bold">Stack</tspan><tspan x="430.32" fill="#e6edf3">Astro · TypeScript · Java · React · Node</tspan></text>
  <text x="352.32" y="242" font-size="12" style="clip-path: inset(0 100% 0 0); animation: typeon 0.25s steps(18) 5.02s forwards;"><tspan fill="#1ed760" font-weight="bold">Editor</tspan><tspan x="430.32" fill="#e6edf3">VS Code</tspan></text>
  <text x="352.32" y="266" font-size="12" style="clip-path: inset(0 100% 0 0); animation: typeon 0.39s steps(28) 5.33s forwards;"><tspan fill="#1ed760" font-weight="bold">Uptime</tspan><tspan x="430.32" fill="#e6edf3">online &amp; shipping</tspan></text>
  <style>@keyframes curmove { 0% { transform: translate(0px,58.0px); } 7.86% { transform: translate(0px,58.0px); } 12.27% { transform: translate(129.6px,58.0px); } 13.32% { transform: translate(0px,86.0px); } 16.74% { transform: translate(100.8px,86.0px); } 17.79% { transform: translate(0px,101.0px); } 25.13% { transform: translate(216.0px,101.0px); } 26.18% { transform: translate(0px,122.0px); } 35.23% { transform: translate(266.4px,122.0px); } 36.28% { transform: translate(0px,146.0px); } 47.54% { transform: translate(331.2px,146.0px); } 48.58% { transform: translate(0px,170.0px); } 58.62% { transform: translate(295.2px,170.0px); } 59.66% { transform: translate(0px,194.0px); } 73.12% { transform: translate(396.0px,194.0px); } 74.17% { transform: translate(0px,218.0px); } 86.65% { transform: translate(367.2px,218.0px); } 87.70% { transform: translate(0px,242.0px); } 92.10% { transform: translate(129.6px,242.0px); } 93.15% { transform: translate(0px,266.0px); } 100.00% { transform: translate(201.6px,266.0px); } }</style>
  <rect x="352.32" y="0" width="6.5" height="13" rx="1" fill="#1ed760" style="transform: translate(0px,58.0px); animation: curmove 5.72s linear forwards, blink 0.9s steps(1) infinite;"/>
  <g class="ln" style="animation-delay:5.78s">
    <rect x="352.32" y="298" width="16" height="16" rx="3" fill="#0d1117" stroke="#30363d" stroke-width="1"/>
    <rect x="374.32" y="298" width="16" height="16" rx="3" fill="#ff6b6b"/>
    <rect x="396.32" y="298" width="16" height="16" rx="3" fill="#1ed760"/>
    <rect x="418.32" y="298" width="16" height="16" rx="3" fill="#ffd866"/>
    <rect x="440.32" y="298" width="16" height="16" rx="3" fill="#6cb6ff"/>
    <rect x="462.32" y="298" width="16" height="16" rx="3" fill="#d2a8ff"/>
    <rect x="484.32" y="298" width="16" height="16" rx="3" fill="#56d4dd"/>
    <rect x="506.32" y="298" width="16" height="16" rx="3" fill="#e6edf3"/>
  </g>
</svg>